<svg width="73" height="56" viewBox="0 0 73 56" fill="none" xmlns="http://www.w3.org/2000/svg">
<path d="M0.129909 55.3825V39.0428C0.129909 34.4032 1.03767 29.6626 2.85319 24.8212C4.66871 19.9798 7.06419 15.4158 10.0396 11.1292C13.0151 6.84251 16.2427 3.2619 19.7224 0.387331L33.944 8.78412C31.1199 13.2221 28.8 17.8617 26.9845 22.7031C25.2194 27.5445 24.3369 32.9406 24.3369 38.8915V55.3825H0.129909ZM38.3315 55.3825V39.0428C38.3315 34.4032 39.2393 29.6626 41.0548 24.8212C42.8703 19.9798 45.2658 15.4158 48.2412 11.1292C51.2167 6.84251 54.4443 3.2619 57.924 0.387331L72.1456 8.78412C69.3215 13.2221 67.0016 17.8617 65.1861 22.7031C63.421 27.5445 62.5385 32.9406 62.5385 38.8915V55.3825H38.3315Z" fill="white"/>
</svg>
