<svg width="553" height="78" viewBox="0 0 553 78" fill="none" xmlns="http://www.w3.org/2000/svg">
<path d="M39.7694 63.5342L58.1981 75.2349C60.5748 76.7341 63.5 74.5036 62.8053 71.7613L57.4668 50.7731C57.3224 50.1913 57.3454 49.5806 57.533 49.0113C57.7206 48.442 58.0652 47.9373 58.5272 47.5554L75.0545 33.7704C77.2118 31.9788 76.1148 28.3589 73.2993 28.176L51.7261 26.7866C51.1375 26.7523 50.5716 26.5473 50.0976 26.1967C49.6235 25.846 49.2619 25.3649 49.0569 24.8121L41.0126 4.55518C40.7997 3.96979 40.4118 3.4641 39.9016 3.10676C39.3913 2.74942 38.7835 2.55774 38.1606 2.55774C37.5377 2.55774 36.9298 2.74942 36.4196 3.10676C35.9094 3.4641 35.5215 3.96979 35.3085 4.55518L27.2643 24.8121C27.0593 25.3649 26.6976 25.846 26.2236 26.1967C25.7496 26.5473 25.1837 26.7523 24.5951 26.7866L3.02183 28.176C0.206341 28.3589 -0.890602 31.9788 1.26672 33.7704L17.794 47.5554C18.2559 47.9373 18.6006 48.442 18.7882 49.0113C18.9758 49.5806 18.9987 50.1913 18.8544 50.7731L13.9181 70.2255C13.0771 73.5164 16.5874 76.1856 19.4029 74.3939L36.5517 63.5342C37.0326 63.2284 37.5907 63.066 38.1606 63.066C38.7305 63.066 39.2885 63.2284 39.7694 63.5342Z" fill="#FFA43C"/>
<path d="M158.174 63.5342L176.603 75.2349C178.98 76.7341 181.905 74.5036 181.21 71.7613L175.872 50.7731C175.727 50.1913 175.75 49.5806 175.938 49.0113C176.126 48.442 176.47 47.9373 176.932 47.5554L193.459 33.7704C195.617 31.9788 194.52 28.3589 191.704 28.176L170.131 26.7866C169.543 26.7523 168.977 26.5473 168.503 26.1967C168.029 25.846 167.667 25.3649 167.462 24.8121L159.418 4.55518C159.205 3.96979 158.817 3.4641 158.307 3.10676C157.796 2.74942 157.189 2.55774 156.566 2.55774C155.943 2.55774 155.335 2.74942 154.825 3.10676C154.314 3.4641 153.926 3.96979 153.714 4.55518L145.669 24.8121C145.464 25.3649 145.103 25.846 144.629 26.1967C144.155 26.5473 143.589 26.7523 143 26.7866L121.427 28.176C118.611 28.3589 117.514 31.9788 119.672 33.7704L136.199 47.5554C136.661 47.9373 137.006 48.442 137.193 49.0113C137.381 49.5806 137.404 50.1913 137.259 50.7731L132.323 70.2255C131.482 73.5164 134.992 76.1856 137.808 74.3939L154.957 63.5342C155.438 63.2284 155.996 63.066 156.566 63.066C157.135 63.066 157.694 63.2284 158.174 63.5342Z" fill="#FFA43C"/>
<path d="M276.579 63.5342L295.008 75.2349C297.385 76.7341 300.31 74.5036 299.615 71.7613L294.277 50.7731C294.132 50.1913 294.155 49.5806 294.343 49.0113C294.531 48.442 294.875 47.9373 295.337 47.5554L311.864 33.7704C314.022 31.9788 312.925 28.3589 310.109 28.176L288.536 26.7866C287.947 26.7523 287.382 26.5473 286.907 26.1967C286.433 25.846 286.072 25.3649 285.867 24.8121L277.823 4.55518C277.61 3.96979 277.222 3.4641 276.711 3.10676C276.201 2.74942 275.593 2.55774 274.971 2.55774C274.348 2.55774 273.74 2.74942 273.23 3.10676C272.719 3.4641 272.331 3.96979 272.118 4.55518L264.074 24.8121C263.869 25.3649 263.508 25.846 263.034 26.1967C262.56 26.5473 261.994 26.7523 261.405 26.7866L239.832 28.176C237.016 28.3589 235.919 31.9788 238.077 33.7704L254.604 47.5554C255.066 47.9373 255.411 48.442 255.598 49.0113C255.786 49.5806 255.809 50.1913 255.664 50.7731L250.728 70.2255C249.887 73.5164 253.397 76.1856 256.213 74.3939L273.362 63.5342C273.843 63.2284 274.401 63.066 274.971 63.066C275.54 63.066 276.098 63.2284 276.579 63.5342Z" fill="#FFA43C"/>
<path d="M394.984 63.5342L413.413 75.2349C415.79 76.7341 418.715 74.5036 418.02 71.7613L412.682 50.7731C412.537 50.1913 412.56 49.5806 412.748 49.0113C412.936 48.442 413.28 47.9373 413.742 47.5554L430.269 33.7704C432.427 31.9788 431.33 28.3589 428.514 28.176L406.941 26.7866C406.352 26.7523 405.787 26.5473 405.313 26.1967C404.838 25.846 404.477 25.3649 404.272 24.8121L396.228 4.55518C396.015 3.96979 395.627 3.4641 395.117 3.10676C394.606 2.74942 393.998 2.55774 393.376 2.55774C392.753 2.55774 392.145 2.74942 391.635 3.10676C391.124 3.4641 390.736 3.96979 390.523 4.55518L382.479 24.8121C382.274 25.3649 381.913 25.846 381.439 26.1967C380.965 26.5473 380.399 26.7523 379.81 26.7866L358.237 28.176C355.421 28.3589 354.324 31.9788 356.482 33.7704L373.009 47.5554C373.471 47.9373 373.816 48.442 374.003 49.0113C374.191 49.5806 374.214 50.1913 374.069 50.7731L369.133 70.2255C368.292 73.5164 371.802 76.1856 374.618 74.3939L391.767 63.5342C392.248 63.2284 392.806 63.066 393.376 63.066C393.945 63.066 394.504 63.2284 394.984 63.5342Z" fill="#FFA43C"/>
<path d="M513.389 63.5342L531.818 75.2349C534.195 76.7341 537.12 74.5036 536.425 71.7613L531.087 50.7731C530.942 50.1913 530.965 49.5806 531.153 49.0113C531.34 48.442 531.685 47.9373 532.147 47.5554L548.674 33.7704C550.832 31.9788 549.735 28.3589 546.919 28.176L525.346 26.7866C524.757 26.7523 524.191 26.5473 523.717 26.1967C523.243 25.846 522.882 25.3649 522.677 24.8121L514.633 4.55518C514.42 3.96979 514.032 3.4641 513.521 3.10676C513.011 2.74942 512.403 2.55774 511.78 2.55774C511.158 2.55774 510.55 2.74942 510.039 3.10676C509.529 3.4641 509.141 3.96979 508.928 4.55518L500.884 24.8121C500.679 25.3649 500.318 25.846 499.843 26.1967C499.369 26.5473 498.804 26.7523 498.215 26.7866L476.642 28.176C473.826 28.3589 472.729 31.9788 474.887 33.7704L491.414 47.5554C491.876 47.9373 492.22 48.442 492.408 49.0113C492.596 49.5806 492.619 50.1913 492.474 50.7731L487.538 70.2255C486.697 73.5164 490.207 76.1856 493.023 74.3939L510.172 63.5342C510.652 63.2284 511.211 63.066 511.78 63.066C512.35 63.066 512.908 63.2284 513.389 63.5342Z" stroke="#FFA43C" stroke-width="4.43794" stroke-linecap="round" stroke-linejoin="round"/>
</svg>
